<svg width="28" height="18" viewBox="0 0 30 36" fill="none" xmlns="http://www.w3.org/2000/svg">
<path fill-rule="evenodd" clip-rule="evenodd" d="M5.18794 4.625C4.35505 5.26297 3.75 6.30302 3.75 8.15V31.9084L13.4349 26.6027C14.32 26.1245 15.3866 26.1245 16.2718 26.6027L16.2768 26.6054L26.0481 31.9257V7.84524C26.0481 6.14503 25.4507 5.18186 24.6031 4.57405C23.6601 3.89786 22.1739 3.5 20.179 3.5H9.61905C7.56583 3.5 6.10261 3.9244 5.18794 4.625ZM3.05967 1.84643C4.83072 0.489881 7.17702 0 9.61905 0H20.179C22.5422 0 24.8656 0.455477 26.6427 1.72976C28.515 3.07242 29.5481 5.15688 29.5481 7.84524V32.1195C29.5481 33.0161 29.1919 33.8759 28.558 34.5099C27.924 35.1438 27.0642 35.5 26.1676 35.5L26.1399 35.4998C25.5956 35.4911 25.0606 35.3574 24.5763 35.1089C24.5636 35.1024 24.551 35.0957 24.5384 35.0889L14.8541 29.816L5.23319 35.0867C5.22199 35.0928 5.21072 35.0988 5.19939 35.1047C3.57266 35.9501 1.56857 35.3517 0.671771 33.7527C0.663604 33.7382 0.655646 33.7235 0.647899 33.7087C0.39548 33.2268 0.259299 32.6926 0.250243 32.1487L0.25 32.1195V8.15C0.25 5.42555 1.20686 3.26561 3.05967 1.84643Z" fill="#657786"/>
</svg>
