<svg width="20" height="20" viewBox="0 0 33 32" fill="none" xmlns="http://www.w3.org/2000/svg">
<path d="M0 6.18998C0 2.77135 2.61929 0 5.85034 0H26.9116C30.1426 0 32.7619 2.77135 32.7619 6.18998V18.5699C32.7619 21.9885 30.1426 24.7599 26.9116 24.7599H17.9907L10.8239 31.3948C9.34107 32.7678 7.02041 31.6536 7.02041 29.5688V24.7599H5.85034C2.61929 24.7599 0 21.9885 0 18.5699V6.18998ZM5.85034 2.47599C3.9117 2.47599 2.34014 4.13879 2.34014 6.18998V18.5699C2.34014 20.621 3.9117 22.2839 5.85034 22.2839H9.36054V29.4596L17.1114 22.2839H26.9116C28.8501 22.2839 30.4218 20.621 30.4218 18.5699V6.18998C30.4218 4.13879 28.8501 2.47599 26.9116 2.47599H5.85034Z" fill="#657786"/>
</svg>
