<svg width="20" height="20" viewBox="0 0 34 32" fill="none" xmlns="http://www.w3.org/2000/svg">
<path fill-rule="evenodd" clip-rule="evenodd" d="M7.49901 0.531016C1.35745 2.52189 -1.3819 9.27273 0.677153 15.7129C1.72202 18.7454 3.4213 21.4711 5.65388 23.7073C8.71661 26.7023 12.0813 29.3379 15.6983 31.5774L16.1091 31.8251C16.5025 32.0621 16.9946 32.058 17.3839 31.8143L17.7674 31.5743C21.3794 29.3379 24.7442 26.7023 27.7964 23.7177C30.0395 21.4711 31.7388 18.7454 32.7749 15.7392C34.8414 9.27665 32.0908 2.52261 25.9473 0.531115L25.5029 0.397864C22.6862 -0.382169 19.693 0.00219131 17.1697 1.44059L16.7212 1.70828L16.2806 1.44208C13.6192 -0.0784167 10.4385 -0.421 7.49901 0.531016ZM15.6812 3.96509L16.0103 4.20274C16.4441 4.51556 17.0294 4.50934 17.4566 4.18737C19.6813 2.51043 22.5605 2.02244 25.1981 2.87442C29.958 4.41742 32.1242 9.73635 30.4544 14.9591C29.5487 17.5861 28.0494 19.9909 26.0806 21.963L25.1973 22.8078C22.8177 25.0344 20.2443 27.05 17.512 28.8263L16.7294 29.3218L16.9682 29.4734C13.5165 27.3361 10.2935 24.8116 7.36973 21.9526C5.41136 19.9909 3.91212 17.5861 2.99765 14.9328C1.33497 9.73138 3.49175 4.4162 8.24911 2.87403C10.7612 2.06044 13.4998 2.46382 15.6812 3.96509Z" fill="#657786"/>
</svg>
