<svg width="20" height="20" viewBox="0 0 33 35" fill="none" xmlns="http://www.w3.org/2000/svg">
<path d="M26.9535 6.53268C24.0552 3.61912 20.1112 1.98686 16.0016 2.00001L16 2.00001H15.99C8.37215 2.00427 1.9176 7.53613 0.701307 15H3.7323C3.84775 14.4336 4.00373 13.8765 4.19683 13.3327C4.21829 13.2722 4.2506 13.2178 4.29109 13.1714C6.09851 8.27331 10.7662 5.00778 15.9993 5.00006L16.0007 5.00006C19.3136 5.00452 22.4854 6.34174 24.8015 8.71046C24.9931 8.90638 24.9913 9.21999 24.7974 9.41369L19.2076 15H31.5V2.70495L27.6611 6.53406C27.5671 6.62779 27.4398 6.68031 27.307 6.68005C27.1743 6.67979 27.0471 6.62677 26.9535 6.53268Z" fill="#657786"/>
<path d="M0.5 19.9999V32.2917L4.32022 28.4665C4.41412 28.3725 4.54159 28.3197 4.67447 28.3198C4.80735 28.32 4.93472 28.373 5.02844 28.4672C7.92656 31.3799 11.8696 33.0121 15.9785 32.9999H15.98H16C23.6209 32.9996 30.0799 27.4667 31.2967 19.9999H28.265C28.1494 20.565 27.9953 21.1216 27.8036 21.6659C27.7822 21.7269 27.7497 21.7817 27.7089 21.8285C25.9015 26.7266 21.2338 29.9921 16.0007 29.9998L15.9989 29.9998C12.6896 29.9923 9.52224 28.6554 7.20852 26.2895C7.01704 26.0936 7.01871 25.7802 7.21228 25.5865L12.7937 19.9999H0.5Z" fill="#657786"/>
<path d="M27.304 5.47787L31.6469 1.14601C31.79 1.00328 32.0049 0.960732 32.1916 1.0382C32.3783 1.11566 32.5 1.2979 32.5 1.50001M16.0001 6.00006C18.8788 6.00412 21.6416 7.10333 23.7331 9.06359M8.27663 25.936C10.3658 27.8939 13.1245 28.993 15.9999 28.9998C20.8669 28.9924 25.2022 25.9219 26.8246 21.3332C26.8452 21.2749 26.876 21.2222 26.9144 21.1768C27.1075 20.6024 27.2555 20.0137 27.3571 19.4161C27.3979 19.1758 27.6062 18.9999 27.85 18.9999H31.874C32.0175 18.9999 32.1541 19.0616 32.249 19.1692C32.3439 19.2768 32.388 19.4201 32.3701 19.5624C31.3307 27.8122 24.315 33.9995 16 33.9999L15.9815 33.9999L15.9802 33.9999M16.0016 2.00001C20.1112 1.98686 24.0552 3.61912 26.9535 6.53268C27.0471 6.62677 27.1743 6.67979 27.307 6.68005C27.4398 6.68031 27.5671 6.62779 27.6611 6.53406L31.5 2.70495V15H19.2076L24.7974 9.41369C24.9913 9.21999 24.9931 8.90638 24.8015 8.71046C22.4854 6.34174 19.3136 5.00452 16.0007 5.00006L15.9993 5.00006C10.7662 5.00778 6.09851 8.27331 4.29109 13.1714C4.2506 13.2178 4.21829 13.2722 4.19683 13.3327C4.00373 13.8765 3.84775 14.4336 3.7323 15H0.701307C1.9176 7.53613 8.37215 2.00427 15.99 2.00001H16L16.0016 2.00001ZM0.5 32.2917V19.9999H12.7937L7.21228 25.5865C7.01871 25.7802 7.01704 26.0936 7.20852 26.2895C9.52224 28.6554 12.6896 29.9923 15.9989 29.9998L16.0007 29.9998C21.2338 29.9921 25.9015 26.7266 27.7089 21.8285C27.7497 21.7817 27.7822 21.7269 27.8036 21.6659C27.9953 21.1216 28.1494 20.565 28.265 19.9999H31.2967C30.0799 27.4667 23.6209 32.9996 16 32.9999H15.98H15.9785C11.8696 33.0121 7.92656 31.3799 5.02844 28.4672C4.93472 28.373 4.80735 28.32 4.67447 28.3198C4.54159 28.3197 4.41412 28.3725 4.32022 28.4665L0.5 32.2917Z" stroke="#F6F8FF" stroke-width="0.6" stroke-linecap="round" stroke-linejoin="round"/>
</svg>
