<svg width="1051" height="1080" viewBox="0 0 1051 1080" fill="none" xmlns="http://www.w3.org/2000/svg">
<mask id="mask0" mask-type="alpha" maskUnits="userSpaceOnUse" x="0" y="0" width="1051" height="1080">
<rect width="1051" height="1080" fill="#C4C4C4"/>
</mask>
<g mask="url(#mask0)">
<path opacity="0.4" d="M704.464 -31C925.347 -31 1087.94 1.45692 995.607 146.417C880.189 327.618 752.494 548.047 807.083 757.204C856.393 946.131 882.884 1088.3 755.842 1089.53C742.238 1089.66 726.951 1092.77 709.653 1089.53C563.248 1062.09 643.809 340.547 704.464 -31Z" fill="#657EFF"/>
<path fill-rule="evenodd" clip-rule="evenodd" d="M934.132 171C1023.09 31.283 883 -5 653.632 2.78056e-05L0 2.78354e-05V1080L658.632 1080C670.212 1082.17 680.857 1081.39 690.673 1080.66C694.978 1080.35 699.124 1080.04 703.119 1080C703.123 1080 703.128 1080 703.132 1080L714 1080V1079.51C823.941 1070.35 798.547 936.192 752.5 759.695C699.906 558.103 822.933 345.646 934.132 171Z" fill="#657EFF"/>
</g>
<path d="M284.296 658.082C284.543 658.477 284.765 659.019 284.962 659.71C285.209 660.351 285.332 661.067 285.332 661.856C285.332 663.188 285.011 664.199 284.37 664.89C283.778 665.581 282.939 665.926 281.854 665.926H271.642V702.926C271.247 703.025 270.631 703.148 269.792 703.296C268.953 703.444 268.09 703.518 267.202 703.518C265.327 703.518 263.995 703.173 263.206 702.482C262.417 701.791 262.022 700.632 262.022 699.004V665.926H249.59C249.343 665.482 249.097 664.939 248.85 664.298C248.653 663.657 248.554 662.941 248.554 662.152C248.554 660.771 248.85 659.759 249.442 659.118C250.083 658.427 250.947 658.082 252.032 658.082H284.296ZM305.298 697.006C306.729 697.006 308.036 696.883 309.22 696.636C310.404 696.34 311.267 695.995 311.81 695.6V687.386L304.632 688.052C302.659 688.249 301.154 688.693 300.118 689.384C299.082 690.025 298.564 691.061 298.564 692.492C298.564 693.923 299.082 695.033 300.118 695.822C301.203 696.611 302.93 697.006 305.298 697.006ZM305.002 666.888C309.837 666.888 313.685 667.924 316.546 669.996C319.457 672.068 320.912 675.275 320.912 679.616V696.71C320.912 697.894 320.616 698.831 320.024 699.522C319.432 700.213 318.692 700.829 317.804 701.372C316.423 702.211 314.671 702.877 312.55 703.37C310.429 703.863 308.011 704.11 305.298 704.11C300.365 704.11 296.467 703.173 293.606 701.298C290.794 699.374 289.388 696.513 289.388 692.714C289.388 689.409 290.424 686.893 292.496 685.166C294.617 683.39 297.676 682.305 301.672 681.91L311.81 680.874V679.542C311.81 677.667 311.119 676.286 309.738 675.398C308.406 674.51 306.507 674.066 304.04 674.066C302.116 674.066 300.241 674.313 298.416 674.806C296.591 675.25 294.963 675.817 293.532 676.508C292.989 676.113 292.521 675.595 292.126 674.954C291.781 674.263 291.608 673.523 291.608 672.734C291.608 671.747 291.83 670.958 292.274 670.366C292.767 669.725 293.532 669.157 294.568 668.664C295.999 668.072 297.627 667.628 299.452 667.332C301.277 667.036 303.127 666.888 305.002 666.888ZM342.184 702.926C341.79 703.025 341.198 703.148 340.408 703.296C339.668 703.444 338.854 703.518 337.966 703.518C336.19 703.518 334.883 703.197 334.044 702.556C333.255 701.915 332.86 700.78 332.86 699.152V654.9C333.255 654.752 333.822 654.629 334.562 654.53C335.352 654.382 336.19 654.308 337.078 654.308C338.854 654.308 340.137 654.629 340.926 655.27C341.765 655.911 342.184 657.046 342.184 658.674V702.926ZM363.764 702.926C363.32 703.025 362.728 703.148 361.988 703.296C361.248 703.444 360.41 703.518 359.472 703.518C357.746 703.518 356.463 703.197 355.624 702.556C354.786 701.915 354.366 700.78 354.366 699.152V654.9C354.761 654.752 355.328 654.629 356.068 654.53C356.858 654.382 357.721 654.308 358.658 654.308C360.385 654.308 361.668 654.629 362.506 655.27C363.345 655.911 363.764 657.046 363.764 658.674V681.614L378.12 667.332C379.995 667.332 381.5 667.751 382.634 668.59C383.769 669.429 384.336 670.489 384.336 671.772C384.336 672.907 383.966 673.893 383.226 674.732C382.536 675.571 381.426 676.631 379.896 677.914L371.904 684.87L386.038 698.116C385.841 699.843 385.323 701.199 384.484 702.186C383.646 703.123 382.437 703.592 380.858 703.592C379.724 703.592 378.712 703.321 377.824 702.778C376.986 702.235 375.95 701.273 374.716 699.892L363.764 687.756V702.926ZM411.751 704.036C410.32 704.036 408.988 703.888 407.755 703.592C406.571 703.345 405.485 703.025 404.499 702.63V716.246C404.055 716.345 403.463 716.468 402.723 716.616C401.983 716.764 401.144 716.838 400.207 716.838C398.48 716.838 397.197 716.517 396.359 715.876C395.52 715.235 395.101 714.1 395.101 712.472V674.954C395.101 673.77 395.323 672.808 395.767 672.068C396.26 671.328 397.025 670.637 398.061 669.996C399.491 669.157 401.267 668.442 403.389 667.85C405.51 667.209 407.903 666.888 410.567 666.888C413.28 666.888 415.771 667.258 418.041 667.998C420.359 668.689 422.357 669.799 424.035 671.328C425.712 672.808 427.019 674.707 427.957 677.026C428.894 679.345 429.363 682.107 429.363 685.314C429.363 688.422 428.919 691.135 428.031 693.454C427.143 695.773 425.909 697.721 424.331 699.3C422.801 700.879 420.951 702.063 418.781 702.852C416.659 703.641 414.316 704.036 411.751 704.036ZM410.345 696.562C413.305 696.562 415.623 695.649 417.301 693.824C418.978 691.999 419.817 689.162 419.817 685.314C419.817 681.318 418.953 678.481 417.227 676.804C415.5 675.127 413.28 674.288 410.567 674.288C409.235 674.288 408.051 674.461 407.015 674.806C406.028 675.151 405.165 675.521 404.425 675.916V694.934C405.214 695.427 406.077 695.822 407.015 696.118C408.001 696.414 409.111 696.562 410.345 696.562ZM439.605 668.22C439.999 668.121 440.567 667.998 441.307 667.85C442.096 667.702 442.935 667.628 443.823 667.628C445.599 667.628 446.881 667.949 447.671 668.59C448.509 669.231 448.929 670.366 448.929 671.994V702.926C448.534 703.025 447.942 703.148 447.153 703.296C446.413 703.444 445.599 703.518 444.711 703.518C442.935 703.518 441.627 703.197 440.789 702.556C439.999 701.915 439.605 700.78 439.605 699.152V668.22ZM438.865 657.49C438.865 656.059 439.358 654.851 440.345 653.864C441.381 652.828 442.688 652.31 444.267 652.31C445.845 652.31 447.128 652.828 448.115 653.864C449.101 654.851 449.595 656.059 449.595 657.49C449.595 658.97 449.101 660.228 448.115 661.264C447.128 662.251 445.845 662.744 444.267 662.744C442.688 662.744 441.381 662.251 440.345 661.264C439.358 660.228 438.865 658.97 438.865 657.49ZM477.472 704.036C476.041 704.036 474.709 703.888 473.476 703.592C472.292 703.345 471.207 703.025 470.22 702.63V716.246C469.776 716.345 469.184 716.468 468.444 716.616C467.704 716.764 466.865 716.838 465.928 716.838C464.201 716.838 462.919 716.517 462.08 715.876C461.241 715.235 460.822 714.1 460.822 712.472V674.954C460.822 673.77 461.044 672.808 461.488 672.068C461.981 671.328 462.746 670.637 463.782 669.996C465.213 669.157 466.989 668.442 469.11 667.85C471.231 667.209 473.624 666.888 476.288 666.888C479.001 666.888 481.493 667.258 483.762 667.998C486.081 668.689 488.079 669.799 489.756 671.328C491.433 672.808 492.741 674.707 493.678 677.026C494.615 679.345 495.084 682.107 495.084 685.314C495.084 688.422 494.64 691.135 493.752 693.454C492.864 695.773 491.631 697.721 490.052 699.3C488.523 700.879 486.673 702.063 484.502 702.852C482.381 703.641 480.037 704.036 477.472 704.036ZM476.066 696.562C479.026 696.562 481.345 695.649 483.022 693.824C484.699 691.999 485.538 689.162 485.538 685.314C485.538 681.318 484.675 678.481 482.948 676.804C481.221 675.127 479.001 674.288 476.288 674.288C474.956 674.288 473.772 674.461 472.736 674.806C471.749 675.151 470.886 675.521 470.146 675.916V694.934C470.935 695.427 471.799 695.822 472.736 696.118C473.723 696.414 474.833 696.562 476.066 696.562ZM512.578 689.68C513.269 692.196 514.551 694.021 516.426 695.156C518.301 696.291 520.619 696.858 523.382 696.858C525.454 696.858 527.353 696.562 529.08 695.97C530.856 695.329 532.287 694.663 533.372 693.972C534.063 694.367 534.63 694.909 535.074 695.6C535.518 696.291 535.74 697.031 535.74 697.82C535.74 698.807 535.395 699.695 534.704 700.484C534.063 701.224 533.15 701.865 531.966 702.408C530.831 702.951 529.475 703.37 527.896 703.666C526.317 703.962 524.615 704.11 522.79 704.11C519.879 704.11 517.215 703.715 514.798 702.926C512.43 702.137 510.383 700.953 508.656 699.374C506.979 697.746 505.647 695.748 504.66 693.38C503.723 691.012 503.254 688.249 503.254 685.092C503.254 682.033 503.723 679.369 504.66 677.1C505.597 674.831 506.855 672.931 508.434 671.402C510.062 669.873 511.937 668.738 514.058 667.998C516.179 667.258 518.424 666.888 520.792 666.888C523.209 666.888 525.429 667.283 527.452 668.072C529.475 668.812 531.201 669.873 532.632 671.254C534.063 672.586 535.173 674.214 535.962 676.138C536.801 678.013 537.22 680.06 537.22 682.28C537.22 683.661 536.85 684.697 536.11 685.388C535.419 686.079 534.433 686.523 533.15 686.72L512.578 689.68ZM520.792 673.918C518.375 673.918 516.352 674.732 514.724 676.36C513.096 677.939 512.183 680.208 511.986 683.168L528.414 680.726C528.217 678.901 527.501 677.322 526.268 675.99C525.035 674.609 523.209 673.918 520.792 673.918ZM556.103 702.926C555.659 703.025 555.067 703.148 554.327 703.296C553.587 703.444 552.749 703.518 551.811 703.518C550.085 703.518 548.802 703.197 547.963 702.556C547.125 701.915 546.705 700.78 546.705 699.152V675.694C546.705 674.411 547.001 673.326 547.593 672.438C548.185 671.55 549.049 670.761 550.183 670.07C551.713 669.133 553.587 668.368 555.807 667.776C558.077 667.184 560.519 666.888 563.133 666.888C567.82 666.888 570.163 668.343 570.163 671.254C570.163 671.945 570.04 672.611 569.793 673.252C569.596 673.844 569.374 674.337 569.127 674.732C567.993 674.485 566.587 674.362 564.909 674.362C563.183 674.362 561.555 674.559 560.025 674.954C558.496 675.349 557.189 675.842 556.103 676.434V702.926Z" fill="white"/>
<path d="M502.776 412.159C501.684 413.251 500.865 414.889 501.138 416.527C501.411 421.715 508.237 545.951 376.356 577.078C375.81 577.078 323.385 588 278.06 565.61C297.173 565.064 324.751 560.149 343.864 538.579C345.229 536.94 345.775 534.756 344.683 532.572C343.864 530.66 341.952 529.295 339.768 529.295C339.495 529.568 310.825 529.295 297.446 501.99C302.634 502.264 309.187 501.99 314.648 499.533C316.832 498.441 318.198 496.257 317.924 494.072C317.651 491.615 316.013 489.703 313.556 489.43C312.191 489.157 279.971 482.058 275.602 447.108C280.517 449.293 286.797 450.931 292.804 450.112C294.989 449.839 296.627 448.201 297.173 446.289C297.719 444.105 297.173 441.921 295.535 440.555C294.17 439.463 264.135 412.705 278.333 378.028C293.896 394.411 339.768 436.46 395.469 433.456C397.108 433.456 398.473 432.637 399.565 431.272C400.657 429.907 400.93 428.268 400.384 426.63C399.292 422.534 398.746 418.166 398.746 413.797C398.746 385.4 421.409 362.191 449.532 362.191C463.184 362.191 476.018 367.652 485.574 377.482C486.666 378.574 488.032 379.12 489.397 379.12C495.131 379.12 504.687 378.574 515.609 374.205C512.606 378.028 507.964 382.67 501.138 388.131C499.226 389.496 498.407 392.226 499.5 394.411C500.319 396.595 502.776 397.96 504.96 397.96C506.326 397.96 512.879 397.414 520.251 395.776C515.882 399.599 510.421 405.059 502.776 412.159Z" fill="white"/>
<path d="M316.831 473.867C319.015 473.594 320.654 471.956 321.2 470.044C321.746 467.86 321.2 465.676 319.561 464.31C318.196 463.218 288.161 436.46 302.36 401.783C317.923 418.166 363.795 460.215 419.496 457.211C421.134 457.211 422.499 456.392 423.592 455.027C424.684 453.662 424.957 452.023 424.411 450.385C423.319 446.289 422.772 441.921 422.772 437.552C422.772 409.155 445.435 385.946 473.559 385.946C482.569 385.946 512.331 377.755 515.335 373.932C504.413 378.301 494.856 378.847 489.122 378.847C487.757 378.847 486.392 378.301 485.3 377.209C475.743 367.379 462.91 361.918 449.258 361.918C421.134 361.918 398.471 384.854 398.471 413.251C398.471 417.62 399.018 421.988 400.11 426.084C400.383 427.722 400.11 429.361 399.291 430.726C398.198 432.091 396.833 432.91 395.195 432.91C339.494 436.187 293.622 393.865 278.059 377.482C263.86 411.886 293.895 438.644 295.26 440.009C296.899 441.375 297.445 443.559 296.899 445.743C296.353 447.928 294.441 449.293 292.53 449.566C286.25 450.385 280.243 448.747 275.328 446.562C278.332 469.771 293.349 480.693 303.725 485.608C301.813 481.239 300.448 476.597 299.629 470.863C304.271 473.048 310.551 474.959 316.831 473.867ZM338.675 523.834C340.859 522.742 342.224 520.558 341.951 518.373C341.678 515.916 340.04 514.005 337.582 513.732C336.763 513.458 323.93 510.728 313.554 500.352C308.64 502.264 302.633 502.537 297.445 502.264C304.271 516.189 315.193 523.288 324.203 526.565C328.845 526.292 334.306 525.746 338.675 523.834ZM367.89 562.88C369.256 561.241 369.802 559.057 368.71 556.873C367.89 554.961 365.979 553.596 363.795 553.596C363.522 553.596 350.142 553.596 337.309 544.859C318.742 560.968 294.987 565.064 277.785 565.61C300.994 577.078 326.388 579.808 345.228 579.808C353.419 575.713 361.337 570.252 367.89 562.88Z" fill="#657EFF"/>
<path d="M295.26 448.474C293.349 448.474 291.438 447.928 289.799 446.562C288.434 445.197 254.03 414.616 270.413 374.751C271.505 372.294 273.69 370.383 276.42 369.837C279.151 369.291 281.881 370.11 283.792 372.294C329.391 420.077 371.986 425.538 391.099 425.265C390.28 421.442 390.007 417.62 390.007 413.797C390.007 381.031 416.492 354 448.985 354C464.548 354 479.02 360.007 489.942 370.929C508.236 369.837 519.157 360.826 519.43 360.826C522.98 357.823 528.168 358.369 530.898 361.645C533.902 365.195 533.356 370.383 530.079 373.113C529.533 373.659 514.243 386.492 489.122 387.312C488.849 387.312 488.849 387.312 488.576 387.312C485.027 387.312 481.477 385.673 479.02 383.216C471.101 375.024 460.18 370.383 448.712 370.383C425.776 370.11 406.663 389.496 406.663 413.251C406.663 416.8 407.209 420.623 408.028 424.173C409.12 428.268 408.301 432.364 405.844 435.641C403.386 438.917 399.564 441.101 395.468 441.101C346.32 443.832 304.817 414.07 282.427 393.592C280.789 416.527 299.629 433.183 300.448 434.002C303.725 437.006 304.271 442.194 301.267 445.47C299.902 447.381 297.445 448.474 295.26 448.474ZM501.136 424.719C498.406 424.719 495.675 423.353 494.037 420.623C491.853 416.8 493.218 411.613 497.041 409.428C511.785 400.964 527.076 381.578 527.349 381.305C530.079 377.755 535.267 377.209 538.817 379.939C542.366 382.67 542.912 387.858 540.182 391.407C539.363 392.226 522.707 413.524 505.232 423.627C503.867 424.173 502.502 424.719 501.136 424.719ZM313.281 497.349C312.735 497.349 312.189 497.349 311.643 497.076C310.005 496.803 272.325 488.338 267.137 447.654C266.591 443.286 269.867 439.19 274.236 438.371C278.605 437.825 282.7 441.101 283.519 445.47C287.342 474.686 314.1 480.693 315.193 480.966C319.561 481.785 322.565 486.154 321.473 490.796C320.38 494.891 317.104 497.349 313.281 497.349Z" fill="#444B54"/>
<path d="M339.767 537.76C335.125 538.033 329.391 536.667 325.842 535.575C314.647 532.299 299.083 524.653 290.073 505.54C288.162 501.444 289.8 496.53 293.896 494.618C297.991 492.707 302.906 494.345 304.817 498.441C315.193 520.012 337.31 521.104 339.221 521.377C343.863 521.104 347.959 524.926 347.959 529.568C347.959 533.937 344.136 537.76 339.767 537.76ZM340.04 555.507C339.494 555.507 338.948 555.507 338.402 555.234C337.856 555.234 337.31 554.961 336.764 554.688C336.218 554.415 335.672 554.142 335.398 553.869C334.852 553.596 334.579 553.323 334.033 552.777C333.76 552.504 333.214 551.958 332.941 551.412C332.668 550.866 332.395 550.593 332.122 550.047C331.849 549.5 331.849 548.954 331.576 548.408C331.576 547.862 331.303 547.316 331.303 546.77C331.303 546.224 331.303 545.678 331.576 545.132C331.576 544.586 331.849 544.04 332.122 543.493C332.395 542.947 332.668 542.401 332.941 542.128C333.214 541.582 333.487 541.309 334.033 540.763C334.306 540.49 334.852 539.944 335.398 539.671C335.945 539.398 336.218 539.125 336.764 538.852C337.31 538.579 337.856 538.579 338.402 538.306C339.494 538.033 340.586 538.033 341.679 538.306C342.225 538.306 342.771 538.579 343.317 538.852C343.863 539.125 344.409 539.398 344.682 539.671C345.228 539.944 345.501 540.217 346.047 540.763C346.593 541.309 346.866 541.582 347.139 542.128C347.412 542.674 347.685 542.947 347.959 543.493C348.232 544.04 348.232 544.586 348.505 545.132C348.505 545.678 348.778 546.224 348.778 546.77C348.778 547.316 348.778 547.862 348.505 548.408C348.505 548.954 348.232 549.5 347.959 550.047C347.685 550.593 347.412 551.139 347.139 551.412C346.866 551.685 346.593 552.231 346.047 552.777C345.774 553.05 345.228 553.596 344.682 553.869C344.136 554.142 343.863 554.415 343.317 554.688C342.771 554.961 342.225 554.961 341.679 555.234C341.132 555.234 340.586 555.507 340.04 555.507Z" fill="#444B54"/>
<path d="M278.058 573.801C273.689 573.801 269.866 570.252 269.866 565.883C269.866 561.241 273.416 557.692 277.785 557.419C292.256 557.146 305.362 554.142 316.284 548.954C320.38 547.043 325.294 548.681 327.206 552.777C329.117 556.873 327.479 561.787 323.383 563.699C310.277 569.979 294.986 573.255 278.058 573.801Z" fill="#444B54"/>
<path d="M344.682 588C336.491 588 327.208 587.454 317.378 586.089C313.009 585.543 309.733 581.174 310.552 576.805C311.098 572.436 315.467 569.16 319.835 569.979C349.324 574.348 374.444 569.16 374.717 569.16C499.499 539.398 493.219 421.989 492.946 417.074C492.673 412.432 495.949 408.609 500.591 408.336C505.233 408.063 509.056 411.34 509.329 415.982C509.602 421.442 516.701 552.231 378.267 584.997C377.175 585.27 363.796 588 344.682 588Z" fill="#444B54"/>
</svg>
