<svg width="32" height="38" viewBox="0 0 32 38" fill="none" xmlns="http://www.w3.org/2000/svg">
<path fill-rule="evenodd" clip-rule="evenodd" d="M6.15642 11.3618C6.06424 12.4169 6.06328 13.4986 6.06328 14.6412C6.06328 14.7439 6.05271 14.8464 6.03176 14.9471C5.67916 16.6397 4.87927 18.2079 3.71676 19.4966C3.29152 20.1646 3.04624 20.9243 3.00141 21.7058V22.0381C3.00141 22.0489 3.00129 22.0596 3.00106 22.0704C2.97761 23.1586 3.34405 24.2243 4.04288 25.0827C5.06754 26.1255 6.4461 26.7813 7.93208 26.922L7.95009 26.9238C13.2951 27.4952 18.6879 27.4952 24.0329 26.9238L24.0569 26.9215C25.5439 26.7866 26.9234 26.1292 27.9425 25.0807C28.6538 24.2242 29.0259 23.1529 28.9986 22.0594C28.9984 22.052 28.9983 22.0447 28.9982 22.0374C28.9982 22.0323 28.9981 22.0271 28.9981 22.0219V21.7022C28.9575 20.9271 28.7127 20.1734 28.2849 19.5143C27.1252 18.2178 26.3256 16.6458 25.9685 14.9503C25.9546 14.8844 25.9452 14.8176 25.9402 14.7504C25.8963 14.1493 25.8987 13.5509 25.9008 13.0178C25.9009 12.9877 25.901 12.9578 25.9011 12.9281C25.9032 12.3541 25.9021 11.8506 25.8598 11.3639C25.4197 6.87609 20.8497 3.5 16.066 3.5H15.9336C11.1475 3.5 6.58113 6.8776 6.15642 11.3618ZM3.16917 11.0855C3.77331 4.6627 10.0296 0.5 15.9336 0.5H16.066C21.9715 0.5 28.2233 4.66301 28.8465 11.081L28.8478 11.095L28.8478 11.095C28.9042 11.7391 28.9031 12.3747 28.9011 12.939L28.9009 12.991C28.899 13.5153 28.8972 13.9788 28.9254 14.4296C29.189 15.5964 29.7567 16.681 30.5779 17.5771C30.6268 17.6305 30.6718 17.6874 30.7126 17.7473C31.4892 18.89 31.9343 20.2214 31.9966 21.5981C31.9976 21.6206 31.9981 21.6432 31.9981 21.6658V22.0042C32.0393 23.8486 31.3994 25.6412 30.2029 27.054C30.1832 27.0772 30.1629 27.0998 30.1419 27.1217C28.6153 28.7168 26.5507 29.7046 24.3403 29.9081C18.79 30.5006 13.1902 30.5005 7.63983 29.9078C5.43451 29.6967 3.37537 28.7117 1.84536 27.1261C1.82004 27.0999 1.79568 27.0728 1.77234 27.0447C0.596071 25.633 -0.0339169 23.8536 0.001409 22.0228V21.6658C0.001409 21.641 0.00202698 21.6161 0.00326235 21.5913C0.0716525 20.2168 0.513681 18.8875 1.28062 17.7406C1.32453 17.6749 1.37355 17.6128 1.42724 17.5549C2.23716 16.6807 2.7991 15.6205 3.06328 14.4787C3.06343 13.4025 3.06741 12.2462 3.16831 11.095L3.16914 11.0855L3.16917 11.0855ZM10.8923 32.8764C11.5394 32.3591 12.4833 32.4643 13.0006 33.1114C13.6021 33.8637 14.4924 34.3583 15.4791 34.474C16.4661 34.5898 17.4555 34.3151 18.2274 33.7188L18.2499 33.7018C18.4827 33.5289 18.6912 33.3285 18.871 33.1058C19.3914 32.4612 20.3357 32.3605 20.9803 32.8809C21.6249 33.4012 21.7256 34.3456 21.2053 34.9902C20.8686 35.4073 20.4803 35.7806 20.0501 36.1017C18.6535 37.1757 16.8838 37.6593 15.1297 37.4536C13.3705 37.2473 11.7594 36.3631 10.6574 34.9847C10.1401 34.3376 10.2453 33.3937 10.8923 32.8764Z" fill="black"/>
</svg>
