<svg width="20" height="20" viewBox="0 0 34 32" fill="none" xmlns="http://www.w3.org/2000/svg">
<path fill-rule="evenodd" clip-rule="evenodd" d="M23.3261 0.000268919C24.3889 0.000268919 25.4499 0.150162 26.4588 0.488686C32.6751 2.50972 34.9151 9.33072 33.044 15.2928C31.9829 18.3395 30.2482 21.1201 27.9762 23.3921C24.724 26.5415 21.1552 29.3373 17.3136 31.7457L16.8925 32L16.4546 31.7288C12.5995 29.3373 9.01048 26.5415 5.72798 23.3752C3.47116 21.1033 1.73475 18.3395 0.656864 15.2928C-1.24628 9.33072 0.993704 2.50972 7.27744 0.453318C7.76586 0.284898 8.26943 0.167004 8.77469 0.101321H8.97679C9.45005 0.0322686 9.91994 0.000268919 10.3915 0.000268919H10.5768C11.6378 0.0322686 12.6652 0.21753 13.6605 0.556054H13.7599C13.8273 0.588053 13.8778 0.623422 13.9115 0.655421C14.2837 0.774999 14.6357 0.909735 14.9725 1.095L15.6125 1.38131C15.7672 1.46379 15.9408 1.58981 16.0908 1.69873C16.1858 1.76774 16.2714 1.82988 16.3367 1.86973C16.3642 1.88594 16.3921 1.90225 16.4203 1.91868C16.5647 2.00298 16.7151 2.09079 16.842 2.18804C18.7131 0.758157 20.9851 -0.016573 23.3261 0.000268919ZM27.8061 12.1265C28.4966 12.108 29.0861 11.5539 29.1366 10.8448V10.6444C29.1872 8.28483 27.7573 6.14759 25.583 5.32233C24.8924 5.08486 24.1346 5.45706 23.8819 6.16443C23.6461 6.87179 24.0167 7.64652 24.724 7.89747C25.8036 8.30167 26.5261 9.3644 26.5261 10.5417V10.5939C26.4941 10.9795 26.6103 11.3518 26.8461 11.6381C27.0819 11.9244 27.4356 12.0911 27.8061 12.1265Z" fill="#FF2B2B"/>
</svg>
