<svg width="276" height="234" viewBox="0 0 276 234" fill="none" xmlns="http://www.w3.org/2000/svg">
<path d="M236.776 58.1587C235.684 59.2509 234.865 60.8891 235.138 62.5274C235.411 67.7152 242.237 191.951 110.356 223.078C109.81 223.078 57.3854 234 12.0599 211.61C31.173 211.064 58.7506 206.149 77.8638 184.579C79.229 182.94 79.7751 180.756 78.6829 178.572C77.8638 176.66 75.9524 175.295 73.7681 175.295C73.495 175.568 44.8253 175.295 31.4461 147.991C36.6339 148.264 43.187 147.991 48.6479 145.533C50.8323 144.441 52.1975 142.257 51.9245 140.072C51.6514 137.615 50.0131 135.704 47.5557 135.43C46.1905 135.157 13.9712 128.058 9.60247 93.1085C14.5173 95.2928 20.7973 96.9311 26.8043 96.112C28.9887 95.8389 30.6269 94.2006 31.173 92.2893C31.7191 90.105 31.173 87.9206 29.5348 86.5554C28.1695 85.4632 -1.86543 58.7048 12.3329 24.028C27.8965 40.4107 73.7681 82.4597 129.469 79.4562C131.108 79.4562 132.473 78.6371 133.565 77.2718C134.657 75.9066 134.93 74.2683 134.384 72.6301C133.292 68.5344 132.746 64.1657 132.746 59.7969C132.746 31.4002 155.409 8.19141 183.532 8.19141C197.184 8.19141 210.018 13.6523 219.574 23.4819C220.666 24.5741 222.032 25.1202 223.397 25.1202C229.131 25.1202 238.687 24.5741 249.609 20.2054C246.606 24.028 241.964 28.6698 235.138 34.1307C233.226 35.4959 232.407 38.2264 233.5 40.4107C234.319 42.5951 236.776 43.9603 238.96 43.9603C240.326 43.9603 246.879 43.4142 254.251 41.776C249.882 45.5986 244.421 51.0595 236.776 58.1587Z" fill="#657EFF"/>
<path d="M50.8304 119.867C53.0148 119.594 54.6531 117.956 55.1992 116.044C55.7452 113.86 55.1992 111.676 53.5609 110.31C52.1957 109.218 22.1607 82.4597 36.359 47.7829C51.9226 64.1656 97.7942 106.215 153.495 103.211C155.134 103.211 156.499 102.392 157.591 101.027C158.683 99.6615 158.956 98.0232 158.41 96.385C157.318 92.2893 156.772 87.9206 156.772 83.5518C156.772 55.1551 179.435 31.9463 207.558 31.9463C216.569 31.9463 246.331 23.755 249.334 19.9323C238.412 24.301 228.856 24.8471 223.122 24.8471C221.757 24.8471 220.392 24.301 219.299 23.2089C209.743 13.3792 196.91 7.91833 183.257 7.91833C155.134 7.91833 132.471 30.8541 132.471 59.2508C132.471 63.6196 133.017 67.9883 134.109 72.0839C134.382 73.7222 134.109 75.3605 133.29 76.7257C132.198 78.0909 130.833 78.9101 129.194 78.9101C73.4932 82.1866 27.6216 39.8646 12.058 23.4819C-2.14033 57.8856 27.8946 84.644 29.2599 86.0093C30.8981 87.3745 31.4442 89.5588 30.8981 91.7432C30.352 93.9276 28.4407 95.2928 26.5294 95.5658C20.2494 96.385 14.2424 94.7467 9.32756 92.5623C12.3311 115.771 27.3485 126.693 37.7243 131.608C35.8129 127.239 34.4477 122.597 33.6286 116.863C38.2704 119.048 44.5504 120.959 50.8304 119.867ZM72.674 169.834C74.8584 168.742 76.2236 166.558 75.9506 164.373C75.6775 161.916 74.0393 160.005 71.5819 159.731C70.7627 159.458 57.9296 156.728 47.5539 146.352C42.6391 148.264 36.6321 148.537 31.4442 148.264C38.2704 162.189 49.1922 169.288 58.2026 172.565C62.8444 172.292 68.3053 171.745 72.674 169.834ZM101.89 208.88C103.255 207.241 103.801 205.057 102.709 202.873C101.89 200.961 99.9786 199.596 97.7942 199.596C97.5212 199.596 84.1419 199.596 71.3088 190.859C52.7417 206.968 28.9868 211.064 11.785 211.61C34.9938 223.078 60.387 225.808 79.2271 225.808C87.4185 221.713 95.3368 216.252 101.89 208.88Z" fill="#F6F8FF"/>
<path d="M29.2603 94.4736C27.349 94.4736 25.4377 93.9275 23.7994 92.5623C22.4342 91.1971 -11.9695 60.616 4.41319 20.7514C5.50537 18.294 7.68973 16.3827 10.4202 15.8366C13.1506 15.2905 15.8811 16.1097 17.7924 18.294C63.3909 66.0769 105.986 71.5378 125.099 71.2648C124.28 67.4422 124.007 63.6195 124.007 59.7969C124.007 27.0315 150.492 0 182.985 0C198.548 0 213.02 6.00699 223.942 16.9288C242.236 15.8366 253.157 6.82613 253.43 6.82613C256.98 3.82263 262.168 4.36872 264.898 7.64526C267.902 11.1948 267.356 16.3827 264.079 19.1132C263.533 19.6593 248.243 32.4924 223.122 33.3115C222.849 33.3115 222.849 33.3115 222.576 33.3115C219.027 33.3115 215.477 31.6732 213.02 29.2158C205.101 21.0245 194.18 16.3827 182.712 16.3827C159.776 16.1097 140.663 35.4959 140.663 59.2508C140.663 62.8004 141.209 66.623 142.028 70.1726C143.12 74.2683 142.301 78.364 139.844 81.6405C137.386 84.917 133.564 87.1014 129.468 87.1014C80.3197 89.8319 38.8169 60.0699 16.4272 39.5916C14.7889 62.5273 33.629 79.1831 34.4482 80.0022C37.7247 83.0057 38.2708 88.1936 35.2673 91.4701C33.9021 93.3815 31.4447 94.4736 29.2603 94.4736ZM235.136 70.7187C232.406 70.7187 229.675 69.3535 228.037 66.623C225.853 62.8004 227.218 57.6125 231.041 55.4282C245.785 46.9638 261.076 27.5776 261.349 27.3045C264.079 23.7549 269.267 23.2088 272.817 25.9393C276.366 28.6697 276.912 33.8576 274.182 37.4072C273.363 38.2263 256.707 59.5238 239.232 69.6265C237.867 70.1726 236.502 70.7187 235.136 70.7187ZM47.2813 143.349C46.7352 143.349 46.1891 143.349 45.643 143.076C44.0047 142.803 6.32451 134.338 1.13665 93.6545C0.590558 89.2858 3.8671 85.1901 8.23582 84.371C12.6045 83.8249 16.7002 87.1014 17.5194 91.4701C21.342 120.686 48.1004 126.693 49.1926 126.966C53.5613 127.785 56.5648 132.154 55.4726 136.796C54.3805 140.891 51.1039 143.349 47.2813 143.349Z" fill="#444B54"/>
<path d="M73.7672 183.76C69.1254 184.033 63.3915 182.667 59.8419 181.575C48.647 178.299 33.0834 170.653 24.073 151.54C22.1616 147.444 23.7999 142.53 27.8956 140.618C31.9913 138.707 36.9061 140.345 38.8174 144.441C49.1931 166.012 71.3098 167.104 73.2211 167.377C77.8629 167.104 81.9585 170.926 81.9585 175.568C81.9585 179.937 78.1359 183.76 73.7672 183.76ZM74.0402 201.507C73.4941 201.507 72.948 201.507 72.402 201.234C71.8559 201.234 71.3098 200.961 70.7637 200.688C70.2176 200.415 69.6715 200.142 69.3985 199.869C68.8524 199.596 68.5793 199.323 68.0332 198.777C67.7602 198.504 67.2141 197.958 66.9411 197.412C66.668 196.866 66.395 196.593 66.1219 196.047C65.8489 195.5 65.8489 194.954 65.5758 194.408C65.5758 193.862 65.3028 193.316 65.3028 192.77C65.3028 192.224 65.3028 191.678 65.5758 191.132C65.5758 190.586 65.8489 190.04 66.1219 189.493C66.395 188.947 66.668 188.401 66.9411 188.128C67.2141 187.582 67.4871 187.309 68.0332 186.763C68.3063 186.49 68.8524 185.944 69.3985 185.671C69.9446 185.398 70.2176 185.125 70.7637 184.852C71.3098 184.579 71.8559 184.579 72.402 184.306C73.4941 184.033 74.5863 184.033 75.6785 184.306C76.2246 184.306 76.7707 184.579 77.3168 184.852C77.8629 185.125 78.4089 185.398 78.682 185.671C79.2281 185.944 79.5011 186.217 80.0472 186.763C80.5933 187.309 80.8664 187.582 81.1394 188.128C81.4124 188.674 81.6855 188.947 81.9585 189.493C82.2316 190.04 82.2316 190.586 82.5046 191.132C82.5046 191.678 82.7777 192.224 82.7777 192.77C82.7777 193.316 82.7777 193.862 82.5046 194.408C82.5046 194.954 82.2316 195.5 81.9585 196.047C81.6855 196.593 81.4124 197.139 81.1394 197.412C80.8664 197.685 80.5933 198.231 80.0472 198.777C79.7742 199.05 79.2281 199.596 78.682 199.869C78.1359 200.142 77.8629 200.415 77.3168 200.688C76.7707 200.961 76.2246 200.961 75.6785 201.234C75.1324 201.234 74.5863 201.507 74.0402 201.507Z" fill="#444B54"/>
<path d="M12.0576 219.801C7.68884 219.801 3.86621 216.252 3.86621 211.883C3.86621 207.241 7.4158 203.692 11.7845 203.419C26.2559 203.146 39.3621 200.142 50.2839 194.954C54.3796 193.043 59.2944 194.681 61.2057 198.777C63.117 202.873 61.4787 207.787 57.3831 209.699C44.2769 215.979 28.9864 219.255 12.0576 219.801Z" fill="#444B54"/>
<path d="M78.6825 234C70.4911 234 61.2076 233.454 51.378 232.089C47.0092 231.542 43.7327 227.174 44.5518 222.805C45.0979 218.436 49.4667 215.16 53.8354 215.979C83.3242 220.348 108.444 215.16 108.717 215.16C233.499 185.398 227.219 67.9885 226.946 63.0736C226.673 58.4319 229.949 54.6092 234.591 54.3362C239.233 54.0631 243.056 57.3397 243.329 61.9815C243.602 67.4424 250.701 198.231 112.267 230.996C111.175 231.269 97.7956 234 78.6825 234Z" fill="#444B54"/>
</svg>
