<svg width="1051" height="1080" viewBox="0 0 1051 1080" fill="none" xmlns="http://www.w3.org/2000/svg">
<mask id="mask0_733:21" style="mask-type:alpha" maskUnits="userSpaceOnUse" x="0" y="0" width="1051" height="1080">
<rect width="1051" height="1080" fill="#C4C4C4"/>
</mask>
<g mask="url(#mask0_733:21)">
<path opacity="0.4" d="M704.464 -31C925.347 -31 1087.94 1.45692 995.607 146.417C880.189 327.618 752.494 548.047 807.083 757.204C856.393 946.131 882.884 1088.3 755.842 1089.53C742.238 1089.66 726.951 1092.77 709.653 1089.53C563.248 1062.09 643.809 340.547 704.464 -31Z" fill="#657EFF"/>
<path fill-rule="evenodd" clip-rule="evenodd" d="M934.132 171C1023.09 31.283 883 -5 653.632 2.78025e-05L0 2.78323e-05V1080L658.632 1080C670.212 1082.17 680.857 1081.39 690.673 1080.66C694.978 1080.35 699.124 1080.04 703.119 1080C703.123 1080 703.128 1080 703.132 1080L714 1080V1079.51C823.941 1070.35 798.547 936.192 752.5 759.695C699.906 558.103 822.933 345.646 934.132 171Z" fill="#657EFF"/>
</g>
</svg>
