<?xml version="1.0" encoding="iso-8859-1"?>
<!-- Generator: Adobe Illustrator 19.0.0, SVG Export Plug-In . SVG Version: 6.00 Build 0)  -->
<svg version="1.1" id="Capa_1" xmlns="http://www.w3.org/2000/svg" xmlns:xlink="http://www.w3.org/1999/xlink" x="0px" y="0px"
	 viewBox="0 0 512 512" style="enable-background:new 0 0 512 512;" xml:space="preserve">
<g>
	<g>
		<path d="M272.774,239.226c-4.48-4.48-10.438-6.948-16.774-6.948s-12.294,2.468-16.774,6.948c-9.25,9.249-9.25,24.299,0,33.549
			c4.48,4.48,10.438,6.948,16.774,6.948s12.294-2.468,16.774-6.948C282.024,263.525,282.024,248.475,272.774,239.226z"/>
	</g>
</g>
<g>
	<g>
		<path d="M338.448,173.551L256,0l-82.449,173.551L0,256l173.551,82.449L256,512l82.448-173.551L512,256L338.448,173.551z
			 M293.97,293.97c-10.142,10.142-23.627,15.728-37.97,15.728c-14.343,0-27.828-5.585-37.97-15.728
			c-20.937-20.937-20.937-55.003,0-75.94c10.142-10.142,23.627-15.728,37.97-15.728c14.342,0,27.828,5.585,37.97,15.728
			C314.907,238.967,314.907,273.033,293.97,293.97z"/>
	</g>
</g>
<g>
</g>
<g>
</g>
<g>
</g>
<g>
</g>
<g>
</g>
<g>
</g>
<g>
</g>
<g>
</g>
<g>
</g>
<g>
</g>
<g>
</g>
<g>
</g>
<g>
</g>
<g>
</g>
<g>
</g>
</svg>
